<svg xmlns="http://www.w3.org/2000/svg" xmlns:xlink="http://www.w3.org/1999/xlink" width="568.248" height="200.805" viewBox="0 0 568.248 200.805">
  <defs>
    <linearGradient id="linear-gradient" x1="0.5" y1="0.135" x2="0.5" y2="0.948" gradientUnits="objectBoundingBox">
      <stop offset="0" stop-color="#00bef2"/>
      <stop offset="0.307" stop-color="#2a90d0"/>
      <stop offset="0.608" stop-color="#4e6ab4"/>
      <stop offset="0.849" stop-color="#6453a3"/>
      <stop offset="1" stop-color="#6c4b9d"/>
    </linearGradient>
    <linearGradient id="linear-gradient-2" x1="0.502" y1="0.007" x2="0.498" y2="0.995" xlink:href="#linear-gradient"/>
    <linearGradient id="linear-gradient-3" x1="0.503" y1="0.009" x2="0.499" y2="0.995" xlink:href="#linear-gradient"/>
  </defs>
  <g id="Group_46681" data-name="Group 46681" transform="translate(-435.876 -154.078)">
    <path id="Path_54131" data-name="Path 54131" d="M468.741,189.689" fill="#fff"/>
    <g id="Group_46678" data-name="Group 46678">
      <path id="Path_54132" data-name="Path 54132" d="M603.018,154.078h7.926v44.539h-7.926Z" fill="#160e3e"/>
      <path id="Path_54133" data-name="Path 54133" d="M620.758,154.078h10.506l20.7,33.341h.126V154.078h7.926v44.539H649.948L628.81,164.206h-.125v34.411h-7.927Z" fill="#160e3e"/>
      <path id="Path_54134" data-name="Path 54134" d="M669.827,154.078h15.79a34.994,34.994,0,0,1,8.744,1.132,22.659,22.659,0,0,1,7.926,3.743,19.594,19.594,0,0,1,5.725,6.857,22.723,22.723,0,0,1,2.2,10.537,21.479,21.479,0,0,1-2.2,10.066,20.6,20.6,0,0,1-5.725,6.92,23.931,23.931,0,0,1-7.926,3.994,30.946,30.946,0,0,1-8.744,1.29h-15.79ZM684.359,191.7a26.93,26.93,0,0,0,6.165-.723,16.062,16.062,0,0,0,5.567-2.454,13.042,13.042,0,0,0,4.057-4.687,15.834,15.834,0,0,0,1.573-7.486,16.855,16.855,0,0,0-1.573-7.8,12.657,12.657,0,0,0-4.057-4.719,15.114,15.114,0,0,0-5.567-2.327,30.8,30.8,0,0,0-6.165-.629h-6.606V191.7Z" fill="#160e3e"/>
      <path id="Path_54135" data-name="Path 54135" d="M717.889,154.078h7.926v44.539h-7.926Z" fill="#160e3e"/>
      <path id="Path_54136" data-name="Path 54136" d="M749.595,154.078h6.857l19.188,44.539h-9.059l-4.152-10.191H743.115l-4.026,10.191h-8.87Zm10.065,27.553L752.8,163.514l-6.982,18.117Z" fill="#160e3e"/>
      <path id="Path_54137" data-name="Path 54137" d="M603.018,213.049h17.363a20.945,20.945,0,0,1,4.969.6,12.758,12.758,0,0,1,4.372,1.95,10.072,10.072,0,0,1,4.31,8.65,9.14,9.14,0,0,1-2.139,6.228,11.9,11.9,0,0,1-5.6,3.523v.126a11.675,11.675,0,0,1,6.92,3.271,9.781,9.781,0,0,1,2.705,7.235,12.025,12.025,0,0,1-1.447,6.134,11.575,11.575,0,0,1-3.806,3.994,16.37,16.37,0,0,1-5.41,2.171,29.235,29.235,0,0,1-6.2.66H603.018Zm7.926,18.117h7.046a9.879,9.879,0,0,0,6.039-1.572,5.273,5.273,0,0,0,2.076-4.467,4.561,4.561,0,0,0-2.139-4.278q-2.139-1.257-6.668-1.258h-6.354Zm0,19.754h7.109a26.454,26.454,0,0,0,3.271-.22,10.7,10.7,0,0,0,3.24-.913,6.349,6.349,0,0,0,2.453-2.013,5.8,5.8,0,0,0,.976-3.523q0-3.522-2.391-4.907t-7.235-1.384h-7.423Z" fill="#160e3e"/>
      <path id="Path_54138" data-name="Path 54138" d="M643.72,213.049h7.926v37.493h18.935v7.046H643.72Z" fill="#160e3e"/>
      <path id="Path_54139" data-name="Path 54139" d="M671.84,235.192a24.907,24.907,0,0,1,1.793-9.656,21.2,21.2,0,0,1,4.969-7.329,22.012,22.012,0,0,1,7.549-4.655,26.983,26.983,0,0,1,9.531-1.636,27.427,27.427,0,0,1,9.625,1.636,22.29,22.29,0,0,1,7.612,4.655,21,21,0,0,1,5,7.329,24.906,24.906,0,0,1,1.794,9.656,24.559,24.559,0,0,1-1.794,9.531,21.96,21.96,0,0,1-5,7.423,22.713,22.713,0,0,1-7.612,4.845,26.126,26.126,0,0,1-9.625,1.729,25.7,25.7,0,0,1-9.531-1.729,22.438,22.438,0,0,1-7.549-4.845,22.188,22.188,0,0,1-4.969-7.423A24.56,24.56,0,0,1,671.84,235.192Zm8.618,0a18.878,18.878,0,0,0,1.1,6.574,15.273,15.273,0,0,0,3.146,5.19,14.418,14.418,0,0,0,4.844,3.429,15.263,15.263,0,0,0,6.2,1.227,15.493,15.493,0,0,0,6.228-1.227,14.355,14.355,0,0,0,4.875-3.429,15.306,15.306,0,0,0,3.146-5.19,18.878,18.878,0,0,0,1.1-6.574,18.244,18.244,0,0,0-1.1-6.416,15.653,15.653,0,0,0-3.114-5.159,14.447,14.447,0,0,0-4.844-3.46,15.319,15.319,0,0,0-6.291-1.258,15.091,15.091,0,0,0-6.259,1.258,14.514,14.514,0,0,0-4.813,3.46,15.619,15.619,0,0,0-3.114,5.159A18.244,18.244,0,0,0,680.458,235.192Z" fill="#160e3e"/>
      <path id="Path_54140" data-name="Path 54140" d="M759.535,223.491A10.164,10.164,0,0,0,754.943,220a15.42,15.42,0,0,0-11.828.157,14.766,14.766,0,0,0-4.875,3.46,15.348,15.348,0,0,0-3.145,5.159,18.222,18.222,0,0,0-1.1,6.416,19.836,19.836,0,0,0,1.07,6.669,15.024,15.024,0,0,0,3.05,5.19,13.7,13.7,0,0,0,4.75,3.365,15.556,15.556,0,0,0,6.228,1.2,13.766,13.766,0,0,0,6.354-1.416,12.408,12.408,0,0,0,4.466-3.743l6.354,4.467a20.369,20.369,0,0,1-7.235,5.756,22.979,22.979,0,0,1-10,2.044,25.881,25.881,0,0,1-9.594-1.729,21.694,21.694,0,0,1-12.424-12.268,24.964,24.964,0,0,1-1.761-9.531,24.183,24.183,0,0,1,1.855-9.656,21.5,21.5,0,0,1,5.1-7.329,22.621,22.621,0,0,1,7.643-4.655,27.236,27.236,0,0,1,9.562-1.636,25.9,25.9,0,0,1,4.467.409,22.8,22.8,0,0,1,4.467,1.258,21.622,21.622,0,0,1,4.026,2.108,12.989,12.989,0,0,1,3.208,3.019Z" fill="#160e3e"/>
      <path id="Path_54141" data-name="Path 54141" d="M771.173,213.049H779.1V232.3h.189l18.621-19.25H808.6l-20.822,20.57,22.207,23.969H798.853l-19.565-22.333H779.1v22.333h-7.926Z" fill="#160e3e"/>
      <path id="Path_54142" data-name="Path 54142" d="M844.587,223.491A10.15,10.15,0,0,0,839.994,220a15.415,15.415,0,0,0-11.826.157,14.755,14.755,0,0,0-4.875,3.46,15.35,15.35,0,0,0-3.146,5.159,18.245,18.245,0,0,0-1.1,6.416,19.862,19.862,0,0,0,1.069,6.669,15.042,15.042,0,0,0,3.051,5.19,13.71,13.71,0,0,0,4.75,3.365,15.556,15.556,0,0,0,6.228,1.2A13.76,13.76,0,0,0,840.5,250.2a12.408,12.408,0,0,0,4.466-3.743l6.354,4.467a20.374,20.374,0,0,1-7.234,5.756,22.984,22.984,0,0,1-10,2.044,25.868,25.868,0,0,1-9.593-1.729,21.692,21.692,0,0,1-12.425-12.268,24.945,24.945,0,0,1-1.762-9.531,24.165,24.165,0,0,1,1.857-9.656,21.492,21.492,0,0,1,5.095-7.329,22.626,22.626,0,0,1,7.644-4.655,27.228,27.228,0,0,1,9.562-1.636,25.888,25.888,0,0,1,4.466.409,22.773,22.773,0,0,1,4.466,1.258,21.6,21.6,0,0,1,4.027,2.108,12.972,12.972,0,0,1,3.208,3.019Z" fill="#160e3e"/>
      <path id="Path_54143" data-name="Path 54143" d="M856.225,213.049h7.926V231.04h20.824V213.049H892.9v44.539h-7.926V237.834H864.151v19.754h-7.926Z" fill="#160e3e"/>
      <path id="Path_54144" data-name="Path 54144" d="M916.68,213.049h6.857l19.187,44.539h-9.059L929.513,247.4H910.2l-4.026,10.191H897.3ZM926.746,240.6l-6.857-18.117L912.906,240.6Z" fill="#160e3e"/>
      <path id="Path_54145" data-name="Path 54145" d="M947.129,213.049h7.926v44.539h-7.926Z" fill="#160e3e"/>
      <path id="Path_54146" data-name="Path 54146" d="M964.869,213.049h10.505l20.7,33.341h.126V213.049h7.927v44.539H994.058l-21.137-34.411h-.126v34.411h-7.926Z" fill="#160e3e"/>
      <path id="Path_54147" data-name="Path 54147" d="M635.164,282.462a10.158,10.158,0,0,0-4.592-3.491,15.417,15.417,0,0,0-11.827.157,14.762,14.762,0,0,0-4.876,3.459,15.382,15.382,0,0,0-3.145,5.159,18.254,18.254,0,0,0-1.1,6.417,19.823,19.823,0,0,0,1.07,6.668,15.011,15.011,0,0,0,3.051,5.19,13.7,13.7,0,0,0,4.749,3.366,15.556,15.556,0,0,0,6.228,1.2,13.772,13.772,0,0,0,6.354-1.415,12.419,12.419,0,0,0,4.466-3.743l6.354,4.466a20.333,20.333,0,0,1-7.234,5.756,22.984,22.984,0,0,1-10,2.045,25.852,25.852,0,0,1-9.593-1.73,21.684,21.684,0,0,1-12.425-12.268,24.955,24.955,0,0,1-1.761-9.53,24.174,24.174,0,0,1,1.856-9.657,21.5,21.5,0,0,1,5.1-7.329,22.632,22.632,0,0,1,7.644-4.654,27.232,27.232,0,0,1,9.562-1.636,25.888,25.888,0,0,1,4.466.409,22.8,22.8,0,0,1,4.467,1.258,21.674,21.674,0,0,1,4.026,2.107,12.992,12.992,0,0,1,3.208,3.02Z" fill="#160e3e"/>
      <path id="Path_54148" data-name="Path 54148" d="M643.908,294.163a24.934,24.934,0,0,1,1.793-9.657,21.214,21.214,0,0,1,4.97-7.329,22,22,0,0,1,7.549-4.654,26.975,26.975,0,0,1,9.531-1.636,27.431,27.431,0,0,1,9.625,1.636,22.3,22.3,0,0,1,7.612,4.654,21.03,21.03,0,0,1,5,7.329,24.934,24.934,0,0,1,1.793,9.657,24.569,24.569,0,0,1-1.793,9.53,21.993,21.993,0,0,1-5,7.424,22.721,22.721,0,0,1-7.612,4.844,26.109,26.109,0,0,1-9.625,1.73,25.677,25.677,0,0,1-9.531-1.73,22.425,22.425,0,0,1-7.549-4.844,22.2,22.2,0,0,1-4.97-7.424A24.569,24.569,0,0,1,643.908,294.163Zm8.619,0a18.9,18.9,0,0,0,1.1,6.574,15.3,15.3,0,0,0,3.146,5.19,14.421,14.421,0,0,0,4.844,3.428,15.272,15.272,0,0,0,6.2,1.227,15.492,15.492,0,0,0,6.227-1.227,14.333,14.333,0,0,0,4.876-3.428,15.31,15.31,0,0,0,3.145-5.19,18.881,18.881,0,0,0,1.1-6.574,18.254,18.254,0,0,0-1.1-6.417,15.687,15.687,0,0,0-3.113-5.159,14.434,14.434,0,0,0-4.845-3.459,15.331,15.331,0,0,0-6.29-1.258,15.116,15.116,0,0,0-6.26,1.258,14.506,14.506,0,0,0-4.813,3.459,15.672,15.672,0,0,0-3.114,5.159A18.275,18.275,0,0,0,652.527,294.163Z" fill="#160e3e"/>
      <path id="Path_54149" data-name="Path 54149" d="M699.457,272.02h10.506l20.7,33.34h.125V272.02h7.926v44.538H728.646l-21.137-34.411h-.125v34.411h-7.927Z" fill="#160e3e"/>
      <path id="Path_54150" data-name="Path 54150" d="M780.672,282.462a10.163,10.163,0,0,0-4.592-3.491,15.42,15.42,0,0,0-11.828.157,14.759,14.759,0,0,0-4.875,3.459,15.367,15.367,0,0,0-3.145,5.159,18.231,18.231,0,0,0-1.1,6.417,19.823,19.823,0,0,0,1.07,6.668,15.025,15.025,0,0,0,3.05,5.19,13.7,13.7,0,0,0,4.75,3.366,15.556,15.556,0,0,0,6.228,1.2,13.778,13.778,0,0,0,6.354-1.415,12.419,12.419,0,0,0,4.466-3.743l6.354,4.466a20.341,20.341,0,0,1-7.234,5.756,22.987,22.987,0,0,1-10,2.045,25.861,25.861,0,0,1-9.594-1.73,21.686,21.686,0,0,1-12.424-12.268,24.955,24.955,0,0,1-1.761-9.53,24.191,24.191,0,0,1,1.855-9.657,21.5,21.5,0,0,1,5.1-7.329,22.628,22.628,0,0,1,7.643-4.654,27.236,27.236,0,0,1,9.562-1.636,25.891,25.891,0,0,1,4.467.409,22.8,22.8,0,0,1,4.467,1.258,21.674,21.674,0,0,1,4.026,2.107,12.992,12.992,0,0,1,3.208,3.02Z" fill="#160e3e"/>
      <path id="Path_54151" data-name="Path 54151" d="M792.31,272.02h7.926v37.492h18.936v7.046H792.31Z" fill="#160e3e"/>
      <path id="Path_54152" data-name="Path 54152" d="M838.422,272.02h6.857l19.187,44.538h-9.059l-4.152-10.191H831.943l-4.026,10.191h-8.871Zm10.066,27.553-6.857-18.117-6.983,18.117Z" fill="#160e3e"/>
      <path id="Path_54153" data-name="Path 54153" d="M861.447,272.02h8.87L882.585,306.3h.251l12.393-34.285h8.556l-17.866,44.538h-6.858Z" fill="#160e3e"/>
      <path id="Path_54154" data-name="Path 54154" d="M908.062,272.02h29.505v6.92H915.989v11.323h20.445v6.668H915.989v12.581H938.7v7.046H908.062Z" fill="#160e3e"/>
    </g>
    <g id="Group_46679" data-name="Group 46679">
      <path id="Path_54155" data-name="Path 54155" d="M603.135,338.233h1.777l4.975,11.548h-2.349l-1.076-2.643h-5.007l-1.044,2.643h-2.3Zm2.609,7.144-1.778-4.7-1.81,4.7Z" fill="#160e3e"/>
      <path id="Path_54156" data-name="Path 54156" d="M611.029,338.233h2.723l5.367,8.645h.032v-8.645h2.055v11.548H618.6l-5.481-8.922h-.032v8.922h-2.055Z" fill="#160e3e"/>
      <path id="Path_54157" data-name="Path 54157" d="M627.828,338.233h2.055v11.548h-2.055Z" fill="#160e3e"/>
      <path id="Path_54158" data-name="Path 54158" d="M632.427,338.233h2.724l5.366,8.645h.032v-8.645H642.6v11.548h-2.61l-5.48-8.922h-.033v8.922h-2.055Z" fill="#160e3e"/>
      <path id="Path_54159" data-name="Path 54159" d="M645.149,338.233H647.2v11.548h-2.055Z" fill="#160e3e"/>
      <path id="Path_54160" data-name="Path 54160" d="M652.08,340.028h-3.539v-1.8h9.134v1.8h-3.539v9.753H652.08Z" fill="#160e3e"/>
      <path id="Path_54161" data-name="Path 54161" d="M659.013,338.233h2.055v11.548h-2.055Z" fill="#160e3e"/>
      <path id="Path_54162" data-name="Path 54162" d="M667.233,338.233h1.777l4.975,11.548h-2.349l-1.076-2.643h-5.007l-1.044,2.643h-2.3Zm2.609,7.144-1.778-4.7-1.81,4.7Z" fill="#160e3e"/>
      <path id="Path_54163" data-name="Path 54163" d="M676.48,340.028h-3.539v-1.8h9.134v1.8h-3.539v9.753H676.48Z" fill="#160e3e"/>
      <path id="Path_54164" data-name="Path 54164" d="M683.412,338.233h2.055v11.548h-2.055Z" fill="#160e3e"/>
      <path id="Path_54165" data-name="Path 54165" d="M686.576,338.233h2.3l3.181,8.889h.065l3.213-8.889h2.218l-4.632,11.548h-1.778Z" fill="#160e3e"/>
      <path id="Path_54166" data-name="Path 54166" d="M698.662,338.233h7.649v1.8h-5.594v2.935h5.3v1.729h-5.3v3.262H706.6v1.827h-7.943Z" fill="#160e3e"/>
      <path id="Path_54167" data-name="Path 54167" d="M712.134,343.974a6.475,6.475,0,0,1,.465-2.5,5.5,5.5,0,0,1,1.288-1.9,5.717,5.717,0,0,1,1.958-1.207,6.991,6.991,0,0,1,2.471-.424,7.116,7.116,0,0,1,2.5.424,5.773,5.773,0,0,1,1.973,1.207,5.454,5.454,0,0,1,1.3,1.9,6.475,6.475,0,0,1,.465,2.5,6.389,6.389,0,0,1-.465,2.472,5.726,5.726,0,0,1-1.3,1.924,5.871,5.871,0,0,1-1.973,1.256,6.775,6.775,0,0,1-2.5.448,6.658,6.658,0,0,1-2.471-.448,5.693,5.693,0,0,1-3.246-3.18A6.389,6.389,0,0,1,712.134,343.974Zm2.235,0a4.879,4.879,0,0,0,.286,1.7,3.964,3.964,0,0,0,.815,1.346,3.77,3.77,0,0,0,1.255.889,3.98,3.98,0,0,0,1.607.317,4.037,4.037,0,0,0,1.615-.317,3.746,3.746,0,0,0,1.264-.889,3.964,3.964,0,0,0,.815-1.346,4.9,4.9,0,0,0,.286-1.7,4.738,4.738,0,0,0-.286-1.663,4.042,4.042,0,0,0-.807-1.337,3.743,3.743,0,0,0-1.256-.9,3.979,3.979,0,0,0-1.631-.326,3.925,3.925,0,0,0-1.623.326,3.768,3.768,0,0,0-1.247.9,4.025,4.025,0,0,0-.807,1.337A4.714,4.714,0,0,0,714.369,343.974Z" fill="#160e3e"/>
      <path id="Path_54168" data-name="Path 54168" d="M726.536,338.233h7.454v1.8h-5.4v3.164h5.089v1.728h-5.089v4.861h-2.055Z" fill="#160e3e"/>
      <path id="Path_54169" data-name="Path 54169" d="M739.96,338.233h7.453v1.8h-5.4v3.164h5.09v1.728h-5.09v4.861H739.96Z" fill="#160e3e"/>
      <path id="Path_54170" data-name="Path 54170" d="M749.3,338.233h2.055v11.548H749.3Z" fill="#160e3e"/>
      <path id="Path_54171" data-name="Path 54171" d="M753.9,338.233h2.724l5.366,8.645h.033v-8.645h2.054v11.548h-2.609l-5.48-8.922h-.032v8.922H753.9Z" fill="#160e3e"/>
      <path id="Path_54172" data-name="Path 54172" d="M770.247,338.233h1.778L777,349.781h-2.348l-1.077-2.643h-5.007l-1.044,2.643h-2.3Zm2.61,7.144-1.778-4.7-1.811,4.7Z" fill="#160e3e"/>
      <path id="Path_54173" data-name="Path 54173" d="M778.141,338.233h2.724l5.366,8.645h.033v-8.645h2.055v11.548h-2.61l-5.48-8.922H780.2v8.922h-2.055Z" fill="#160e3e"/>
      <path id="Path_54174" data-name="Path 54174" d="M799.2,340.941a2.631,2.631,0,0,0-1.191-.9,3.93,3.93,0,0,0-1.435-.286,3.979,3.979,0,0,0-1.631.326,3.841,3.841,0,0,0-1.265.9,3.979,3.979,0,0,0-.815,1.337,4.738,4.738,0,0,0-.285,1.663,5.15,5.15,0,0,0,.277,1.73,3.908,3.908,0,0,0,.791,1.345,3.55,3.55,0,0,0,1.232.873,4.04,4.04,0,0,0,1.614.309,3.568,3.568,0,0,0,1.648-.367,3.211,3.211,0,0,0,1.157-.97l1.648,1.158a5.274,5.274,0,0,1-1.876,1.492,5.962,5.962,0,0,1-2.594.53,6.7,6.7,0,0,1-2.486-.448,5.624,5.624,0,0,1-3.221-3.18,6.463,6.463,0,0,1-.457-2.472,6.263,6.263,0,0,1,.481-2.5,5.568,5.568,0,0,1,1.321-1.9,5.862,5.862,0,0,1,1.982-1.207,7.056,7.056,0,0,1,2.479-.424,6.777,6.777,0,0,1,1.158.106,5.882,5.882,0,0,1,1.157.326,5.637,5.637,0,0,1,1.045.546,3.39,3.39,0,0,1,.831.783Z" fill="#160e3e"/>
      <path id="Path_54175" data-name="Path 54175" d="M802.215,338.233h2.055v11.548h-2.055Z" fill="#160e3e"/>
      <path id="Path_54176" data-name="Path 54176" d="M810.435,338.233h1.778l4.974,11.548h-2.349l-1.075-2.643h-5.008l-1.043,2.643h-2.3Zm2.61,7.144-1.778-4.7-1.81,4.7Z" fill="#160e3e"/>
      <path id="Path_54177" data-name="Path 54177" d="M818.329,338.233h2.055v9.721h4.909v1.827h-6.964Z" fill="#160e3e"/>
      <path id="Path_54178" data-name="Path 54178" d="M826.663,338.233h7.65v1.8h-5.595v2.935h5.3v1.729h-5.3v3.262h5.888v1.827h-7.943Z" fill="#160e3e"/>
      <path id="Path_54179" data-name="Path 54179" d="M839.4,343.616l-3.588-5.383h2.478l2.382,3.947,2.348-3.947h2.365l-3.522,5.432,4.142,6.116h-2.593l-2.821-4.534-2.708,4.534h-2.479Z" fill="#160e3e"/>
      <path id="Path_54180" data-name="Path 54180" d="M847.344,338.233h3.768a8.176,8.176,0,0,1,1.793.18,3.74,3.74,0,0,1,1.371.587,2.744,2.744,0,0,1,.881,1.044,3.481,3.481,0,0,1,.31,1.533,3.319,3.319,0,0,1-.359,1.615,2.913,2.913,0,0,1-.971,1.052,4.24,4.24,0,0,1-1.427.578,8,8,0,0,1-1.729.18H849.4v4.779h-2.055Zm3.491,5.04a6.059,6.059,0,0,0,.962-.073,2.636,2.636,0,0,0,.815-.262,1.49,1.49,0,0,0,.571-.513,1.533,1.533,0,0,0,.212-.848,1.365,1.365,0,0,0-.775-1.321,2.4,2.4,0,0,0-.8-.236,7.143,7.143,0,0,0-.922-.058h-1.5v3.311Z" fill="#160e3e"/>
      <path id="Path_54181" data-name="Path 54181" d="M857.294,338.233h4.012a7.182,7.182,0,0,1,1.582.172,4.065,4.065,0,0,1,1.362.562,2.934,2.934,0,0,1,.954,1.028,3.11,3.11,0,0,1,.359,1.549,2.947,2.947,0,0,1-.709,2.047,3.573,3.573,0,0,1-1.933,1.069L866,349.781h-2.478l-2.676-4.893h-1.5v4.893h-2.055Zm3.735,4.975a5.922,5.922,0,0,0,.88-.065,2.537,2.537,0,0,0,.791-.245,1.55,1.55,0,0,0,.579-.513,1.486,1.486,0,0,0,.229-.857,1.316,1.316,0,0,0-.212-.775,1.579,1.579,0,0,0-.539-.481,2.246,2.246,0,0,0-.741-.244,5.161,5.161,0,0,0-.807-.066h-1.86v3.246Z" fill="#160e3e"/>
      <path id="Path_54182" data-name="Path 54182" d="M867.553,338.233h7.65v1.8h-5.6v2.935h5.3v1.729h-5.3v3.262H875.5v1.827h-7.943Z" fill="#160e3e"/>
      <path id="Path_54183" data-name="Path 54183" d="M883.389,340.647a2.483,2.483,0,0,0-.921-.709,2.753,2.753,0,0,0-1.2-.286,2.987,2.987,0,0,0-.718.09,2.151,2.151,0,0,0-.652.278,1.512,1.512,0,0,0-.482.489,1.344,1.344,0,0,0-.188.725,1.3,1.3,0,0,0,.164.67,1.478,1.478,0,0,0,.448.472,3.053,3.053,0,0,0,.694.343c.272.1.57.2.9.293.369.12.753.255,1.149.408a4.434,4.434,0,0,1,1.093.6,3.016,3.016,0,0,1,.816.946,2.892,2.892,0,0,1,.317,1.419,3.62,3.62,0,0,1-.342,1.624,3.332,3.332,0,0,1-.913,1.149,3.9,3.9,0,0,1-1.337.685,5.606,5.606,0,0,1-1.616.228,6.048,6.048,0,0,1-2.2-.416,4.236,4.236,0,0,1-1.761-1.231l1.468-1.37a2.942,2.942,0,0,0,1.133.93,3.192,3.192,0,0,0,1.394.342,3.1,3.1,0,0,0,.735-.09,1.951,1.951,0,0,0,.676-.3,1.708,1.708,0,0,0,.489-.53,1.529,1.529,0,0,0,.188-.791,1.287,1.287,0,0,0-.212-.759,1.888,1.888,0,0,0-.571-.522,4.13,4.13,0,0,0-.848-.383l-1.027-.342a9.9,9.9,0,0,1-1.044-.392,3.438,3.438,0,0,1-.938-.6,2.91,2.91,0,0,1-.677-.922,3.15,3.15,0,0,1-.261-1.362,2.982,2.982,0,0,1,.367-1.517,3.244,3.244,0,0,1,.962-1.052,4.288,4.288,0,0,1,1.354-.619,5.915,5.915,0,0,1,1.542-.2,5.5,5.5,0,0,1,1.785.309,4.4,4.4,0,0,1,1.575.93Z" fill="#160e3e"/>
      <path id="Path_54184" data-name="Path 54184" d="M892.752,340.647a2.5,2.5,0,0,0-.922-.709,2.753,2.753,0,0,0-1.2-.286,2.987,2.987,0,0,0-.718.09,2.151,2.151,0,0,0-.652.278,1.512,1.512,0,0,0-.482.489,1.353,1.353,0,0,0-.188.725,1.3,1.3,0,0,0,.164.67,1.478,1.478,0,0,0,.448.472,3.074,3.074,0,0,0,.694.343c.272.1.57.2.9.293.37.12.753.255,1.149.408a4.434,4.434,0,0,1,1.093.6,3,3,0,0,1,.816.946,2.892,2.892,0,0,1,.318,1.419,3.62,3.62,0,0,1-.343,1.624,3.332,3.332,0,0,1-.913,1.149,3.9,3.9,0,0,1-1.337.685,5.606,5.606,0,0,1-1.616.228,6.048,6.048,0,0,1-2.2-.416A4.236,4.236,0,0,1,886,348.427l1.468-1.37a2.942,2.942,0,0,0,1.133.93,3.192,3.192,0,0,0,1.394.342,3.1,3.1,0,0,0,.735-.09,1.942,1.942,0,0,0,.676-.3,1.708,1.708,0,0,0,.489-.53,1.529,1.529,0,0,0,.188-.791,1.287,1.287,0,0,0-.212-.759,1.9,1.9,0,0,0-.57-.522,4.165,4.165,0,0,0-.849-.383l-1.027-.342a9.9,9.9,0,0,1-1.044-.392,3.438,3.438,0,0,1-.938-.6,2.91,2.91,0,0,1-.677-.922,3.15,3.15,0,0,1-.261-1.362,2.992,2.992,0,0,1,.367-1.517,3.254,3.254,0,0,1,.962-1.052,4.288,4.288,0,0,1,1.354-.619,5.915,5.915,0,0,1,1.542-.2,5.5,5.5,0,0,1,1.785.309,4.4,4.4,0,0,1,1.575.93Z" fill="#160e3e"/>
      <path id="Path_54185" data-name="Path 54185" d="M895.769,348.639a1.214,1.214,0,0,1,.383-.9,1.272,1.272,0,0,1,.922-.375,1.308,1.308,0,0,1,.913.359,1.145,1.145,0,0,1,.392.88,1.207,1.207,0,0,1-.384.9,1.265,1.265,0,0,1-.921.376,1.3,1.3,0,0,1-.5-.1,1.388,1.388,0,0,1-.415-.262,1.2,1.2,0,0,1-.286-.391A1.152,1.152,0,0,1,895.769,348.639Z" fill="#160e3e"/>
      <path id="Path_54186" data-name="Path 54186" d="M908.8,340.941a2.628,2.628,0,0,0-1.19-.9,3.93,3.93,0,0,0-1.435-.286,3.984,3.984,0,0,0-1.632.326,3.836,3.836,0,0,0-1.264.9,3.98,3.98,0,0,0-.815,1.337,4.738,4.738,0,0,0-.286,1.663,5.15,5.15,0,0,0,.278,1.73,3.908,3.908,0,0,0,.791,1.345,3.532,3.532,0,0,0,1.232.873,4.04,4.04,0,0,0,1.614.309,3.571,3.571,0,0,0,1.648-.367,3.212,3.212,0,0,0,1.157-.97l1.648,1.158a5.292,5.292,0,0,1-1.876,1.492,5.962,5.962,0,0,1-2.594.53,6.7,6.7,0,0,1-2.487-.448,5.631,5.631,0,0,1-3.221-3.18,6.463,6.463,0,0,1-.457-2.472,6.262,6.262,0,0,1,.481-2.5,5.567,5.567,0,0,1,1.321-1.9,5.881,5.881,0,0,1,1.982-1.207,7.061,7.061,0,0,1,2.48-.424,6.777,6.777,0,0,1,1.158.106,5.9,5.9,0,0,1,1.157.326,5.668,5.668,0,0,1,1.045.546,3.39,3.39,0,0,1,.831.783Z" fill="#160e3e"/>
      <path id="Path_54187" data-name="Path 54187" d="M911.068,343.974a6.438,6.438,0,0,1,.465-2.5,5.488,5.488,0,0,1,1.288-1.9,5.7,5.7,0,0,1,1.958-1.207,6.982,6.982,0,0,1,2.47-.424,7.112,7.112,0,0,1,2.5.424,5.784,5.784,0,0,1,1.973,1.207,5.428,5.428,0,0,1,1.3,1.9,6.476,6.476,0,0,1,.464,2.5,6.39,6.39,0,0,1-.464,2.472,5.7,5.7,0,0,1-1.3,1.924,5.882,5.882,0,0,1-1.973,1.256,6.771,6.771,0,0,1-2.5.448,6.648,6.648,0,0,1-2.47-.448,5.693,5.693,0,0,1-3.246-3.18A6.352,6.352,0,0,1,911.068,343.974Zm2.234,0a4.9,4.9,0,0,0,.285,1.7,3.982,3.982,0,0,0,.816,1.346,3.762,3.762,0,0,0,1.256.889,3.976,3.976,0,0,0,1.606.317,4.033,4.033,0,0,0,1.615-.317,3.745,3.745,0,0,0,1.264-.889,3.98,3.98,0,0,0,.815-1.346,4.879,4.879,0,0,0,.286-1.7,4.714,4.714,0,0,0-.286-1.663,4.042,4.042,0,0,0-.807-1.337,3.729,3.729,0,0,0-1.255-.9,3.984,3.984,0,0,0-1.632-.326,3.916,3.916,0,0,0-1.622.326,3.775,3.775,0,0,0-1.249.9,4.06,4.06,0,0,0-.807,1.337A4.738,4.738,0,0,0,913.3,343.974Z" fill="#160e3e"/>
      <path id="Path_54188" data-name="Path 54188" d="M925.47,338.233h3.213l3,8.2h.049l2.968-8.2h3.229v11.548h-2.038V340.5h-.033l-3.507,9.28h-1.435l-3.457-9.28h-.033v9.28H925.47Z" fill="#160e3e"/>
    </g>
    <rect id="Rectangle_4863" data-name="Rectangle 4863" width="18.914" height="18.914" transform="translate(435.876 155.728)" fill="#00bef2"/>
    <path id="Path_54189" data-name="Path 54189" d="M490.222,202.539c-16.695.318-25.714.356-30.494.321v19.38c4.474-.153,13.006-.426,29.281-.916,30.136-.908,34.521,27.592,34.521,35.611s-5.324,34.508-35.888,34.508c-31.2,0-32.851-34.231-32.851-34.231s.032-77.809.023-77.808l-18.912.065a.023.023,0,0,0-.022.024v80.494s-1.331,50.128,51.681,50.128c49.655,0,54.548-45.417,54.564-53.9S537.216,201.643,490.222,202.539Z" fill="url(#linear-gradient)"/>
    <g id="Group_46680" data-name="Group 46680">
      <path id="Path_54190" data-name="Path 54190" d="M524.38,336.322a35,35,0,0,1-2.368-69.921,36.171,36.171,0,0,0,1.518-9.466,42.146,42.146,0,0,0-1.17-9.133,53.56,53.56,0,1,0,52.978,70.033H555.245A34.995,34.995,0,0,1,524.38,336.322Z" fill="url(#linear-gradient-2)"/>
      <path id="Path_54191" data-name="Path 54191" d="M542.125,256.216a60.6,60.6,0,0,1-2,13.848,35.124,35.124,0,0,1,16.585,17.821h19.537a53.673,53.673,0,0,0-34.516-37.253A48.559,48.559,0,0,1,542.125,256.216Z" fill="url(#linear-gradient-3)"/>
    </g>
  </g>
</svg>
