<svg xmlns="http://www.w3.org/2000/svg" width="648.022" height="82.054" viewBox="0 0 648.022 82.054">
  <g id="Group_48462" data-name="Group 48462" transform="translate(-395.989 -376.897)">
    <g id="Group_48461" data-name="Group 48461">
      <g id="Group_48460" data-name="Group 48460">
        <g id="Group_48459" data-name="Group 48459">
          <path id="Path_56229" data-name="Path 56229" d="M1001.755,455.186h-563l-21.494-37.232.183-.32,21.311-36.912h563l21.495,37.232-.184.32Z" fill="#160e3e"/>
        </g>
      </g>
      <path id="Path_56230" data-name="Path 56230" d="M415.983,417.907l9.633-16.685-3.668-.048-9.66,16.733,10.468,18.132h3.7Z" fill="#160e3e"/>
      <path id="Path_56231" data-name="Path 56231" d="M1024.42,417.907l-9.633-16.685,3.668-.048,9.661,16.733-10.469,18.132h-3.7Z" fill="#160e3e"/>
      <path id="Path_56232" data-name="Path 56232" d="M1031.066,396.186l-.029-.051h-21.123l.117.2h20.889l12.857,22.268-12.857,22.269h-21.737l-.117.2h21.971l12.944-22.421.029-.051Z" fill="#160e3e"/>
      <path id="Path_56233" data-name="Path 56233" d="M408.934,396.186l.029-.051h21.123l-.117.2H409.08l-12.857,22.268,12.857,22.269h21.737l.117.2h-21.97l-12.944-22.421-.029-.051Z" fill="#160e3e"/>
      <path id="Path_56234" data-name="Path 56234" d="M1010.089,396.338l12.48,21.616-13.327,22.921h21.736s12.733-22.078,12.857-22.269-12.857-22.268-12.857-22.268Z" fill="#160e3e" opacity="0.2" style="mix-blend-mode: screen;isolation: isolate"/>
      <path id="Path_56235" data-name="Path 56235" d="M429.911,396.338l-12.48,21.616,13.327,22.921H409.022s-12.733-22.078-12.857-22.269,12.857-22.268,12.857-22.268Z" fill="#160e3e" opacity="0.2" style="mix-blend-mode: screen;isolation: isolate"/>
      <path id="Path_56236" data-name="Path 56236" d="M445.455,376.9H436.5l-5.664,9.811,2.686,1.748,4.825-8.358h7.109Z" fill="#160e3e" opacity="0.8"/>
      <path id="Path_56237" data-name="Path 56237" d="M995.015,376.9h8.957l5.664,9.811-2.687,1.748-4.825-8.358h-7.109Z" fill="#160e3e" opacity="0.8"/>
      <path id="Path_56238" data-name="Path 56238" d="M445.475,458.951h-8.957l-5.664-9.811,2.687-1.748,4.825,8.358h7.109Z" fill="#160e3e" opacity="0.8"/>
      <path id="Path_56239" data-name="Path 56239" d="M995.035,458.951h8.957l5.664-9.811-2.686-1.748-4.825,8.358h-7.109Z" fill="#160e3e" opacity="0.8"/>
    </g>
  </g>
</svg>
